{
  "asset": {
    "version": "2.0",
    "generator": "Neon Harbor independent CC0 core conversion",
    "copyright": "CC0 MakeHuman Team / Data Collection AB / Joel Palmius / Jonas Hauquier; NH conversion and FK under project MIT"
  },
  "scene": 0,
  "scenes": [
    {
      "nodes": [
        0
      ]
    }
  ],
  "nodes": [
    {
      "name": "Near commuter \u00b7 licensed core anatomy",
      "children": [
        1,
        72,
        73,
        74,
        75
      ]
    },
    {
      "name": "root",
      "translation": [
        0.0,
        0.9252058483390906,
        -0.07470096324430388
      ],
      "extras": {
        "makehumanJoint": "root"
      },
      "children": [
        2,
        3,
        4
      ]
    },
    {
      "name": "pelvis_L",
      "translation": [
        9.297281863823684e-20,
        0.01001693932440828,
        0.06977020659451484
      ],
      "extras": {
        "makehumanJoint": "pelvis.L"
      },
      "children": [
        6
      ]
    },
    {
      "name": "pelvis_R",
      "translation": [
        9.297281863823684e-20,
        0.01001693932440828,
        0.06977020659451484
      ],
      "extras": {
        "makehumanJoint": "pelvis.R"
      },
      "children": [
        7
      ]
    },
    {
      "name": "spine05",
      "translation": [
        9.297281863823684e-20,
        0.01001693932440828,
        0.06977020659451484
      ],
      "extras": {
        "makehumanJoint": "spine05"
      },
      "children": [
        5
      ]
    },
    {
      "name": "spine04",
      "translation": [
        -1.859456372764737e-19,
        0.09038827271596972,
        -0.03250547726192445
      ],
      "extras": {
        "makehumanJoint": "spine04"
      },
      "children": [
        10
      ]
    },
    {
      "name": "upperleg01_L",
      "translation": [
        0.10918946220233913,
        -0.004094671826563867,
        -0.011179954751586875
      ],
      "extras": {
        "makehumanJoint": "upperleg01.L"
      },
      "children": [
        8
      ]
    },
    {
      "name": "upperleg01_R",
      "translation": [
        -0.10918946220233913,
        -0.004094671826563867,
        -0.011179954751586875
      ],
      "extras": {
        "makehumanJoint": "upperleg01.R"
      },
      "children": [
        9
      ]
    },
    {
      "name": "lowerleg01_L",
      "translation": [
        0.044818970091153015,
        -0.42425677284671204,
        0.035458571733700275
      ],
      "extras": {
        "makehumanJoint": "lowerleg01.L"
      },
      "children": [
        11
      ]
    },
    {
      "name": "lowerleg01_R",
      "translation": [
        -0.044818970091153015,
        -0.42425677284671204,
        0.035458571733700275
      ],
      "extras": {
        "makehumanJoint": "lowerleg01.R"
      },
      "children": [
        12
      ]
    },
    {
      "name": "spine03",
      "translation": [
        0.0,
        0.07040262973003131,
        0.008205422207420664
      ],
      "extras": {
        "makehumanJoint": "spine03"
      },
      "children": [
        13
      ]
    },
    {
      "name": "foot_L",
      "translation": [
        0.03930402596872595,
        -0.4189294118577007,
        -0.010274196193093018
      ],
      "extras": {
        "makehumanJoint": "foot.L"
      },
      "children": [
        15
      ]
    },
    {
      "name": "foot_R",
      "translation": [
        -0.03930402596872595,
        -0.4189294118577007,
        -0.010274196193093018
      ],
      "extras": {
        "makehumanJoint": "foot.R"
      },
      "children": [
        16
      ]
    },
    {
      "name": "spine02",
      "translation": [
        9.297281863823684e-20,
        0.05865992557819655,
        -0.00971144679284536
      ],
      "extras": {
        "makehumanJoint": "spine02"
      },
      "children": [
        14
      ]
    },
    {
      "name": "spine01",
      "translation": [
        0.0,
        0.13558508883300324,
        -0.021191534557897643
      ],
      "extras": {
        "makehumanJoint": "spine01"
      },
      "children": [
        17,
        18,
        19
      ]
    },
    {
      "name": "toe1-1_L",
      "translation": [
        -0.027515765913061846,
        -0.03803382017959567,
        0.13724117992516066
      ],
      "extras": {
        "makehumanJoint": "toe1-1.L"
      }
    },
    {
      "name": "toe1-1_R",
      "translation": [
        0.027515765913061846,
        -0.03803382017959567,
        0.13724117992516066
      ],
      "extras": {
        "makehumanJoint": "toe1-1.R"
      }
    },
    {
      "name": "clavicle_L",
      "translation": [
        0.02271631745666394,
        0.1361773155827879,
        0.07240708949853245
      ],
      "extras": {
        "makehumanJoint": "clavicle.L"
      },
      "children": [
        21
      ]
    },
    {
      "name": "clavicle_R",
      "translation": [
        -0.02271631745666394,
        0.1361773155827879,
        0.07240708949853245
      ],
      "extras": {
        "makehumanJoint": "clavicle.R"
      },
      "children": [
        22
      ]
    },
    {
      "name": "neck01",
      "translation": [
        0.0,
        0.21142762943209537,
        0.06456075500365077
      ],
      "extras": {
        "makehumanJoint": "neck01"
      },
      "children": [
        20
      ]
    },
    {
      "name": "neck02",
      "translation": [
        -1.090881072021979e-17,
        0.022428689985426242,
        0.002039296636135575
      ],
      "extras": {
        "makehumanJoint": "neck02"
      },
      "children": [
        23
      ]
    },
    {
      "name": "shoulder01_L",
      "translation": [
        0.08598542859879385,
        0.012699378132255301,
        0.0008253657870298942
      ],
      "extras": {
        "makehumanJoint": "shoulder01.L"
      },
      "children": [
        24
      ]
    },
    {
      "name": "shoulder01_R",
      "translation": [
        -0.08598542859879385,
        0.012699378132255301,
        0.0008253657870298942
      ],
      "extras": {
        "makehumanJoint": "shoulder01.R"
      },
      "children": [
        25
      ]
    },
    {
      "name": "neck03",
      "translation": [
        8.429535556533473e-18,
        0.03786856837158625,
        0.011581025355890366
      ],
      "extras": {
        "makehumanJoint": "neck03"
      },
      "children": [
        26
      ]
    },
    {
      "name": "upperarm01_L",
      "translation": [
        0.08000688616092469,
        -0.04487524503117779,
        -0.0024144629029673476
      ],
      "extras": {
        "makehumanJoint": "upperarm01.L"
      },
      "children": [
        27
      ]
    },
    {
      "name": "upperarm01_R",
      "translation": [
        -0.08000688616092469,
        -0.04487524503117779,
        -0.0024144629029673476
      ],
      "extras": {
        "makehumanJoint": "upperarm01.R"
      },
      "children": [
        28
      ]
    },
    {
      "name": "head",
      "translation": [
        2.4792751636863158e-18,
        0.037106623548711415,
        0.03217140063384091
      ],
      "extras": {
        "makehumanJoint": "head"
      },
      "children": [
        29,
        30,
        31
      ]
    },
    {
      "name": "lowerarm01_L",
      "translation": [
        0.03984586853248784,
        -0.2518463229040575,
        0.0038313335127392115
      ],
      "extras": {
        "makehumanJoint": "lowerarm01.L"
      },
      "children": [
        32
      ]
    },
    {
      "name": "lowerarm01_R",
      "translation": [
        -0.03984586853248784,
        -0.2518463229040575,
        0.0038313335127392115
      ],
      "extras": {
        "makehumanJoint": "lowerarm01.R"
      },
      "children": [
        33
      ]
    },
    {
      "name": "eye_L",
      "translation": [
        0.031567561594845014,
        0.04777474432197737,
        0.07657143506036515
      ],
      "extras": {
        "makehumanJoint": "eye.L"
      }
    },
    {
      "name": "eye_R",
      "translation": [
        -0.031567561594845014,
        0.04777474432197737,
        0.07657143506036515
      ],
      "extras": {
        "makehumanJoint": "eye.R"
      }
    },
    {
      "name": "jaw",
      "translation": [
        0.0,
        0.011153157161098548,
        0.0013881151872775568
      ],
      "extras": {
        "makehumanJoint": "jaw"
      }
    },
    {
      "name": "wrist_L",
      "translation": [
        0.0411702011045105,
        -0.2602167839041498,
        0.014515135004795399
      ],
      "extras": {
        "makehumanJoint": "wrist.L"
      },
      "children": [
        34,
        36,
        38,
        40,
        42
      ]
    },
    {
      "name": "wrist_R",
      "translation": [
        -0.0411702011045105,
        -0.2602167839041498,
        0.014515135004795399
      ],
      "extras": {
        "makehumanJoint": "wrist.R"
      },
      "children": [
        35,
        37,
        39,
        41,
        43
      ]
    },
    {
      "name": "finger1-1_L",
      "translation": [
        -0.0003214389909541038,
        -0.03760246058905237,
        0.03243961489616368
      ],
      "extras": {
        "makehumanJoint": "finger1-1.L"
      },
      "children": [
        44
      ]
    },
    {
      "name": "finger1-1_R",
      "translation": [
        0.0003214389909541038,
        -0.03760246058905237,
        0.03243961489616368
      ],
      "extras": {
        "makehumanJoint": "finger1-1.R"
      },
      "children": [
        45
      ]
    },
    {
      "name": "metacarpal1_L",
      "translation": [
        0.0006118326359110249,
        -0.034986225295228546,
        0.008403823056102797
      ],
      "extras": {
        "makehumanJoint": "metacarpal1.L"
      },
      "children": [
        46
      ]
    },
    {
      "name": "metacarpal1_R",
      "translation": [
        -0.0006118326359110249,
        -0.034986225295228546,
        0.008403823056102797
      ],
      "extras": {
        "makehumanJoint": "metacarpal1.R"
      },
      "children": [
        47
      ]
    },
    {
      "name": "metacarpal2_L",
      "translation": [
        0.0006118326359110249,
        -0.034986225295228546,
        0.008403823056102797
      ],
      "extras": {
        "makehumanJoint": "metacarpal2.L"
      },
      "children": [
        48
      ]
    },
    {
      "name": "metacarpal2_R",
      "translation": [
        -0.0006118326359110249,
        -0.034986225295228546,
        0.008403823056102797
      ],
      "extras": {
        "makehumanJoint": "metacarpal2.R"
      },
      "children": [
        49
      ]
    },
    {
      "name": "metacarpal3_L",
      "translation": [
        -0.0008582916769077631,
        -0.04367379082973355,
        -0.01419016456653118
      ],
      "extras": {
        "makehumanJoint": "metacarpal3.L"
      },
      "children": [
        50
      ]
    },
    {
      "name": "metacarpal3_R",
      "translation": [
        0.0008582916769077631,
        -0.04367379082973355,
        -0.01419016456653118
      ],
      "extras": {
        "makehumanJoint": "metacarpal3.R"
      },
      "children": [
        51
      ]
    },
    {
      "name": "metacarpal4_L",
      "translation": [
        -0.0008582916769077631,
        -0.04367379082973355,
        -0.01419016456653118
      ],
      "extras": {
        "makehumanJoint": "metacarpal4.L"
      },
      "children": [
        52
      ]
    },
    {
      "name": "metacarpal4_R",
      "translation": [
        0.0008582916769077631,
        -0.04367379082973355,
        -0.01419016456653118
      ],
      "extras": {
        "makehumanJoint": "metacarpal4.R"
      },
      "children": [
        53
      ]
    },
    {
      "name": "finger1-2_L",
      "translation": [
        -0.021054835925914117,
        -0.01158840200670741,
        0.023868333099431198
      ],
      "extras": {
        "makehumanJoint": "finger1-2.L"
      },
      "children": [
        54
      ]
    },
    {
      "name": "finger1-2_R",
      "translation": [
        0.021054835925914117,
        -0.01158840200670741,
        0.023868333099431198
      ],
      "extras": {
        "makehumanJoint": "finger1-2.R"
      },
      "children": [
        55
      ]
    },
    {
      "name": "finger2-1_L",
      "translation": [
        0.005708686704087362,
        -0.07486536618213313,
        0.035633594313256675
      ],
      "extras": {
        "makehumanJoint": "finger2-1.L"
      },
      "children": [
        56
      ]
    },
    {
      "name": "finger2-1_R",
      "translation": [
        -0.005708686704087362,
        -0.07486536618213313,
        0.035633594313256675
      ],
      "extras": {
        "makehumanJoint": "finger2-1.R"
      },
      "children": [
        57
      ]
    },
    {
      "name": "finger3-1_L",
      "translation": [
        0.010276792938219703,
        -0.07734164992256931,
        0.0067922811506620495
      ],
      "extras": {
        "makehumanJoint": "finger3-1.L"
      },
      "children": [
        58
      ]
    },
    {
      "name": "finger3-1_R",
      "translation": [
        -0.010276792938219703,
        -0.07734164992256931,
        0.0067922811506620495
      ],
      "extras": {
        "makehumanJoint": "finger3-1.R"
      },
      "children": [
        59
      ]
    },
    {
      "name": "finger4-1_L",
      "translation": [
        0.011330930313163845,
        -0.06521603489584216,
        0.00717032919348847
      ],
      "extras": {
        "makehumanJoint": "finger4-1.L"
      },
      "children": [
        60
      ]
    },
    {
      "name": "finger4-1_R",
      "translation": [
        -0.011330930313163845,
        -0.06521603489584216,
        0.00717032919348847
      ],
      "extras": {
        "makehumanJoint": "finger4-1.R"
      },
      "children": [
        61
      ]
    },
    {
      "name": "finger5-1_L",
      "translation": [
        0.004961280233914012,
        -0.05806603891530959,
        -0.014444900137241288
      ],
      "extras": {
        "makehumanJoint": "finger5-1.L"
      },
      "children": [
        62
      ]
    },
    {
      "name": "finger5-1_R",
      "translation": [
        -0.004961280233914012,
        -0.05806603891530959,
        -0.014444900137241288
      ],
      "extras": {
        "makehumanJoint": "finger5-1.R"
      },
      "children": [
        63
      ]
    },
    {
      "name": "finger1-3_L",
      "translation": [
        -0.016863680998618485,
        -0.026682900624598993,
        0.024973733203377563
      ],
      "extras": {
        "makehumanJoint": "finger1-3.L"
      }
    },
    {
      "name": "finger1-3_R",
      "translation": [
        0.016863680998618485,
        -0.026682900624598993,
        0.024973733203377563
      ],
      "extras": {
        "makehumanJoint": "finger1-3.R"
      }
    },
    {
      "name": "finger2-2_L",
      "translation": [
        -0.004931634713929378,
        -0.027091985179253264,
        0.007928973471872172
      ],
      "extras": {
        "makehumanJoint": "finger2-2.L"
      },
      "children": [
        64
      ]
    },
    {
      "name": "finger2-2_R",
      "translation": [
        0.004931634713929378,
        -0.027091985179253264,
        0.007928973471872172
      ],
      "extras": {
        "makehumanJoint": "finger2-2.R"
      },
      "children": [
        65
      ]
    },
    {
      "name": "finger3-2_L",
      "translation": [
        -0.008608361301620848,
        -0.036302601485340036,
        -3.391478807729387e-05
      ],
      "extras": {
        "makehumanJoint": "finger3-2.L"
      },
      "children": [
        66
      ]
    },
    {
      "name": "finger3-2_R",
      "translation": [
        0.008608361301620848,
        -0.036302601485340036,
        -3.391478807729387e-05
      ],
      "extras": {
        "makehumanJoint": "finger3-2.R"
      },
      "children": [
        67
      ]
    },
    {
      "name": "finger4-2_L",
      "translation": [
        -0.006316631875158296,
        -0.03185176035395454,
        -0.005681775507963324
      ],
      "extras": {
        "makehumanJoint": "finger4-2.L"
      },
      "children": [
        68
      ]
    },
    {
      "name": "finger4-2_R",
      "translation": [
        0.006316631875158296,
        -0.03185176035395454,
        -0.005681775507963324
      ],
      "extras": {
        "makehumanJoint": "finger4-2.R"
      },
      "children": [
        69
      ]
    },
    {
      "name": "finger5-2_L",
      "translation": [
        -0.0071144119442344,
        -0.021731773915411146,
        -0.006585157794780035
      ],
      "extras": {
        "makehumanJoint": "finger5-2.L"
      },
      "children": [
        70
      ]
    },
    {
      "name": "finger5-2_R",
      "translation": [
        0.0071144119442344,
        -0.021731773915411146,
        -0.006585157794780035
      ],
      "extras": {
        "makehumanJoint": "finger5-2.R"
      },
      "children": [
        71
      ]
    },
    {
      "name": "finger2-3_L",
      "translation": [
        -0.009718098538653075,
        -0.022950704184153015,
        0.005541774753327927
      ],
      "extras": {
        "makehumanJoint": "finger2-3.L"
      }
    },
    {
      "name": "finger2-3_R",
      "translation": [
        0.009718098538653075,
        -0.022950704184153015,
        0.005541774753327927
      ],
      "extras": {
        "makehumanJoint": "finger2-3.R"
      }
    },
    {
      "name": "finger3-3_L",
      "translation": [
        -0.010387730233791359,
        -0.028874079804506847,
        0.0018392426699844061
      ],
      "extras": {
        "makehumanJoint": "finger3-3.L"
      }
    },
    {
      "name": "finger3-3_R",
      "translation": [
        0.010387730233791359,
        -0.028874079804506847,
        0.0018392426699844061
      ],
      "extras": {
        "makehumanJoint": "finger3-3.R"
      }
    },
    {
      "name": "finger4-3_L",
      "translation": [
        -0.009291378213794776,
        -0.02584571126527624,
        -0.0024589083004078784
      ],
      "extras": {
        "makehumanJoint": "finger4-3.L"
      }
    },
    {
      "name": "finger4-3_R",
      "translation": [
        0.009291378213794776,
        -0.02584571126527624,
        -0.0024589083004078784
      ],
      "extras": {
        "makehumanJoint": "finger4-3.R"
      }
    },
    {
      "name": "finger5-3_L",
      "translation": [
        -0.008221259567213701,
        -0.014753531492094685,
        -0.0036512230465002536
      ],
      "extras": {
        "makehumanJoint": "finger5-3.L"
      }
    },
    {
      "name": "finger5-3_R",
      "translation": [
        0.008221259567213701,
        -0.014753531492094685,
        -0.0036512230465002536
      ],
      "extras": {
        "makehumanJoint": "finger5-3.R"
      }
    },
    {
      "name": "skin",
      "mesh": 0,
      "skin": 0
    },
    {
      "name": "wardrobe",
      "mesh": 1,
      "skin": 0
    },
    {
      "name": "hair",
      "mesh": 2,
      "skin": 0
    },
    {
      "name": "eyes",
      "mesh": 3,
      "skin": 0
    }
  ],
  "meshes": [
    {
      "name": "skin",
      "primitives": [
        {
          "attributes": {
            "POSITION": 0,
            "NORMAL": 1,
            "TEXCOORD_0": 2,
            "JOINTS_0": 3,
            "WEIGHTS_0": 4
          },
          "indices": 5,
          "material": 0
        }
      ]
    },
    {
      "name": "wardrobe",
      "primitives": [
        {
          "attributes": {
            "POSITION": 6,
            "NORMAL": 7,
            "TEXCOORD_0": 8,
            "JOINTS_0": 9,
            "WEIGHTS_0": 10
          },
          "indices": 11,
          "material": 1
        }
      ]
    },
    {
      "name": "hair",
      "primitives": [
        {
          "attributes": {
            "POSITION": 12,
            "NORMAL": 13,
            "TEXCOORD_0": 14,
            "JOINTS_0": 15,
            "WEIGHTS_0": 16
          },
          "indices": 17,
          "material": 2
        }
      ]
    },
    {
      "name": "eyes",
      "primitives": [
        {
          "attributes": {
            "POSITION": 18,
            "NORMAL": 19,
            "TEXCOORD_0": 20,
            "JOINTS_0": 21,
            "WEIGHTS_0": 22
          },
          "indices": 23,
          "material": 3
        }
      ]
    }
  ],
  "skins": [
    {
      "name": "Reduced MakeHuman core FK 71",
      "joints": [
        1,
        2,
        3,
        4,
        5,
        6,
        7,
        8,
        9,
        10,
        11,
        12,
        13,
        14,
        15,
        16,
        17,
        18,
        19,
        20,
        21,
        22,
        23,
        24,
        25,
        26,
        27,
        28,
        29,
        30,
        31,
        32,
        33,
        34,
        35,
        36,
        37,
        38,
        39,
        40,
        41,
        42,
        43,
        44,
        45,
        46,
        47,
        48,
        49,
        50,
        51,
        52,
        53,
        54,
        55,
        56,
        57,
        58,
        59,
        60,
        61,
        62,
        63,
        64,
        65,
        66,
        67,
        68,
        69,
        70,
        71
      ],
      "skeleton": 1,
      "inverseBindMatrices": 24
    }
  ],
  "materials": [
    {
      "name": "CC0 anatomical skin",
      "pbrMetallicRoughness": {
        "baseColorTexture": {
          "index": 0
        },
        "metallicFactor": 0,
        "roughnessFactor": 0.64
      },
      "extras": {
        "surfaceKind": "skin",
        "source": "MakeHuman core young_asian_male"
      }
    },
    {
      "name": "CC0 woven workwear and leather shoes",
      "pbrMetallicRoughness": {
        "baseColorTexture": {
          "index": 1
        },
        "metallicFactor": 0,
        "roughnessFactor": 1,
        "metallicRoughnessTexture": {
          "index": 3
        }
      },
      "normalTexture": {
        "index": 2,
        "scale": 0.7
      },
      "occlusionTexture": {
        "index": 3,
        "strength": 0.35
      },
      "extras": {
        "surfaceKind": "cloth",
        "source": "MakeHuman core male_casualsuit03/shoes02"
      }
    },
    {
      "name": "CC0 cropped hair cards",
      "alphaMode": "MASK",
      "alphaCutoff": 0.45,
      "doubleSided": true,
      "pbrMetallicRoughness": {
        "baseColorTexture": {
          "index": 4
        },
        "metallicFactor": 0,
        "roughnessFactor": 0.82
      },
      "extras": {
        "surfaceKind": "hair"
      }
    },
    {
      "name": "CC0 brown eyes",
      "alphaMode": "MASK",
      "alphaCutoff": 0.35,
      "pbrMetallicRoughness": {
        "baseColorTexture": {
          "index": 5
        },
        "metallicFactor": 0,
        "roughnessFactor": 0.18
      },
      "extras": {
        "surfaceKind": "eye"
      }
    }
  ],
  "images": [
    {
      "uri": "skin-basecolor.jpg"
    },
    {
      "uri": "wardrobe-basecolor.jpg"
    },
    {
      "uri": "wardrobe-normal.png"
    },
    {
      "uri": "wardrobe-orm.png"
    },
    {
      "uri": "hair-basecolor.png"
    },
    {
      "uri": "eyes-basecolor.png"
    }
  ],
  "textures": [
    {
      "source": 0,
      "sampler": 0
    },
    {
      "source": 1,
      "sampler": 0
    },
    {
      "source": 2,
      "sampler": 0
    },
    {
      "source": 3,
      "sampler": 0
    },
    {
      "source": 4,
      "sampler": 0
    },
    {
      "source": 5,
      "sampler": 0
    }
  ],
  "samplers": [
    {
      "magFilter": 9729,
      "minFilter": 9987,
      "wrapS": 33071,
      "wrapT": 33071
    }
  ],
  "accessors": [
    {
      "bufferView": 0,
      "componentType": 5126,
      "count": 8449,
      "type": "VEC3",
      "min": [
        -0.29086536169052124,
        0.6779518127441406,
        -0.06545043736696243
      ],
      "max": [
        0.29086536169052124,
        1.762083888053894,
        0.16527682542800903
      ]
    },
    {
      "bufferView": 1,
      "componentType": 5126,
      "count": 8449,
      "type": "VEC3"
    },
    {
      "bufferView": 2,
      "componentType": 5126,
      "count": 8449,
      "type": "VEC2"
    },
    {
      "bufferView": 3,
      "componentType": 5123,
      "count": 8449,
      "type": "VEC4"
    },
    {
      "bufferView": 4,
      "componentType": 5126,
      "count": 8449,
      "type": "VEC4"
    },
    {
      "bufferView": 5,
      "componentType": 5123,
      "count": 46476,
      "type": "SCALAR"
    },
    {
      "bufferView": 6,
      "componentType": 5126,
      "count": 4540,
      "type": "VEC3",
      "min": [
        -0.29492542147636414,
        0.0,
        -0.13907478749752045
      ],
      "max": [
        0.3028756082057953,
        1.5322930812835693,
        0.21014687418937683
      ]
    },
    {
      "bufferView": 7,
      "componentType": 5126,
      "count": 4540,
      "type": "VEC3"
    },
    {
      "bufferView": 8,
      "componentType": 5126,
      "count": 4540,
      "type": "VEC2"
    },
    {
      "bufferView": 9,
      "componentType": 5123,
      "count": 4540,
      "type": "VEC4"
    },
    {
      "bufferView": 10,
      "componentType": 5126,
      "count": 4540,
      "type": "VEC4"
    },
    {
      "bufferView": 11,
      "componentType": 5123,
      "count": 23592,
      "type": "SCALAR"
    },
    {
      "bufferView": 12,
      "componentType": 5126,
      "count": 3177,
      "type": "VEC3",
      "min": [
        -0.08385773748159409,
        1.5519695281982422,
        -0.07822240889072418
      ],
      "max": [
        0.08082348853349686,
        1.7799999713897705,
        0.14303259551525116
      ]
    },
    {
      "bufferView": 13,
      "componentType": 5126,
      "count": 3177,
      "type": "VEC3"
    },
    {
      "bufferView": 14,
      "componentType": 5126,
      "count": 3177,
      "type": "VEC2"
    },
    {
      "bufferView": 15,
      "componentType": 5123,
      "count": 3177,
      "type": "VEC4"
    },
    {
      "bufferView": 16,
      "componentType": 5126,
      "count": 3177,
      "type": "VEC4"
    },
    {
      "bufferView": 17,
      "componentType": 5123,
      "count": 11034,
      "type": "SCALAR"
    },
    {
      "bufferView": 18,
      "componentType": 5126,
      "count": 1076,
      "type": "VEC3",
      "min": [
        -0.04820745438337326,
        1.6308708190917969,
        0.11982903629541397
      ],
      "max": [
        0.04820745438337326,
        1.6625192165374756,
        0.14471164345741272
      ]
    },
    {
      "bufferView": 19,
      "componentType": 5126,
      "count": 1076,
      "type": "VEC3"
    },
    {
      "bufferView": 20,
      "componentType": 5126,
      "count": 1076,
      "type": "VEC2"
    },
    {
      "bufferView": 21,
      "componentType": 5123,
      "count": 1076,
      "type": "VEC4"
    },
    {
      "bufferView": 22,
      "componentType": 5126,
      "count": 1076,
      "type": "VEC4"
    },
    {
      "bufferView": 23,
      "componentType": 5123,
      "count": 6120,
      "type": "SCALAR"
    },
    {
      "bufferView": 24,
      "componentType": 5126,
      "count": 71,
      "type": "MAT4"
    },
    {
      "bufferView": 25,
      "componentType": 5126,
      "count": 17,
      "type": "SCALAR",
      "min": 0.0,
      "max": 1.0499999523162842
    },
    {
      "bufferView": 26,
      "componentType": 5126,
      "count": 17,
      "type": "VEC4"
    },
    {
      "bufferView": 27,
      "componentType": 5126,
      "count": 17,
      "type": "VEC4"
    },
    {
      "bufferView": 28,
      "componentType": 5126,
      "count": 17,
      "type": "VEC4"
    },
    {
      "bufferView": 29,
      "componentType": 5126,
      "count": 17,
      "type": "VEC4"
    },
    {
      "bufferView": 30,
      "componentType": 5126,
      "count": 17,
      "type": "VEC4"
    },
    {
      "bufferView": 31,
      "componentType": 5126,
      "count": 17,
      "type": "VEC4"
    },
    {
      "bufferView": 32,
      "componentType": 5126,
      "count": 17,
      "type": "VEC4"
    },
    {
      "bufferView": 33,
      "componentType": 5126,
      "count": 17,
      "type": "SCALAR",
      "min": 0.0,
      "max": 1.350000023841858
    },
    {
      "bufferView": 34,
      "componentType": 5126,
      "count": 17,
      "type": "VEC4"
    },
    {
      "bufferView": 35,
      "componentType": 5126,
      "count": 17,
      "type": "VEC4"
    },
    {
      "bufferView": 36,
      "componentType": 5126,
      "count": 17,
      "type": "VEC4"
    },
    {
      "bufferView": 37,
      "componentType": 5126,
      "count": 17,
      "type": "VEC4"
    },
    {
      "bufferView": 38,
      "componentType": 5126,
      "count": 17,
      "type": "VEC4"
    },
    {
      "bufferView": 39,
      "componentType": 5126,
      "count": 17,
      "type": "VEC4"
    },
    {
      "bufferView": 40,
      "componentType": 5126,
      "count": 17,
      "type": "VEC4"
    },
    {
      "bufferView": 41,
      "componentType": 5126,
      "count": 9,
      "type": "SCALAR",
      "min": 0.0,
      "max": 3.200000047683716
    },
    {
      "bufferView": 42,
      "componentType": 5126,
      "count": 9,
      "type": "VEC4"
    },
    {
      "bufferView": 43,
      "componentType": 5126,
      "count": 9,
      "type": "VEC4"
    },
    {
      "bufferView": 44,
      "componentType": 5126,
      "count": 9,
      "type": "VEC4"
    },
    {
      "bufferView": 45,
      "componentType": 5126,
      "count": 9,
      "type": "VEC4"
    },
    {
      "bufferView": 46,
      "componentType": 5126,
      "count": 9,
      "type": "VEC4"
    },
    {
      "bufferView": 47,
      "componentType": 5126,
      "count": 9,
      "type": "VEC4"
    },
    {
      "bufferView": 48,
      "componentType": 5126,
      "count": 9,
      "type": "VEC4"
    }
  ],
  "bufferViews": [
    {
      "buffer": 0,
      "byteOffset": 0,
      "byteLength": 101388,
      "target": 34962
    },
    {
      "buffer": 0,
      "byteOffset": 101388,
      "byteLength": 101388,
      "target": 34962
    },
    {
      "buffer": 0,
      "byteOffset": 202776,
      "byteLength": 67592,
      "target": 34962
    },
    {
      "buffer": 0,
      "byteOffset": 270368,
      "byteLength": 67592,
      "target": 34962
    },
    {
      "buffer": 0,
      "byteOffset": 337960,
      "byteLength": 135184,
      "target": 34962
    },
    {
      "buffer": 0,
      "byteOffset": 473144,
      "byteLength": 92952,
      "target": 34963
    },
    {
      "buffer": 0,
      "byteOffset": 566096,
      "byteLength": 54480,
      "target": 34962
    },
    {
      "buffer": 0,
      "byteOffset": 620576,
      "byteLength": 54480,
      "target": 34962
    },
    {
      "buffer": 0,
      "byteOffset": 675056,
      "byteLength": 36320,
      "target": 34962
    },
    {
      "buffer": 0,
      "byteOffset": 711376,
      "byteLength": 36320,
      "target": 34962
    },
    {
      "buffer": 0,
      "byteOffset": 747696,
      "byteLength": 72640,
      "target": 34962
    },
    {
      "buffer": 0,
      "byteOffset": 820336,
      "byteLength": 47184,
      "target": 34963
    },
    {
      "buffer": 0,
      "byteOffset": 867520,
      "byteLength": 38124,
      "target": 34962
    },
    {
      "buffer": 0,
      "byteOffset": 905644,
      "byteLength": 38124,
      "target": 34962
    },
    {
      "buffer": 0,
      "byteOffset": 943768,
      "byteLength": 25416,
      "target": 34962
    },
    {
      "buffer": 0,
      "byteOffset": 969184,
      "byteLength": 25416,
      "target": 34962
    },
    {
      "buffer": 0,
      "byteOffset": 994600,
      "byteLength": 50832,
      "target": 34962
    },
    {
      "buffer": 0,
      "byteOffset": 1045432,
      "byteLength": 22068,
      "target": 34963
    },
    {
      "buffer": 0,
      "byteOffset": 1067500,
      "byteLength": 12912,
      "target": 34962
    },
    {
      "buffer": 0,
      "byteOffset": 1080412,
      "byteLength": 12912,
      "target": 34962
    },
    {
      "buffer": 0,
      "byteOffset": 1093324,
      "byteLength": 8608,
      "target": 34962
    },
    {
      "buffer": 0,
      "byteOffset": 1101932,
      "byteLength": 8608,
      "target": 34962
    },
    {
      "buffer": 0,
      "byteOffset": 1110540,
      "byteLength": 17216,
      "target": 34962
    },
    {
      "buffer": 0,
      "byteOffset": 1127756,
      "byteLength": 12240,
      "target": 34963
    },
    {
      "buffer": 0,
      "byteOffset": 1139996,
      "byteLength": 4544
    },
    {
      "buffer": 0,
      "byteOffset": 1144540,
      "byteLength": 68
    },
    {
      "buffer": 0,
      "byteOffset": 1144608,
      "byteLength": 272
    },
    {
      "buffer": 0,
      "byteOffset": 1144880,
      "byteLength": 272
    },
    {
      "buffer": 0,
      "byteOffset": 1145152,
      "byteLength": 272
    },
    {
      "buffer": 0,
      "byteOffset": 1145424,
      "byteLength": 272
    },
    {
      "buffer": 0,
      "byteOffset": 1145696,
      "byteLength": 272
    },
    {
      "buffer": 0,
      "byteOffset": 1145968,
      "byteLength": 272
    },
    {
      "buffer": 0,
      "byteOffset": 1146240,
      "byteLength": 272
    },
    {
      "buffer": 0,
      "byteOffset": 1146512,
      "byteLength": 68
    },
    {
      "buffer": 0,
      "byteOffset": 1146580,
      "byteLength": 272
    },
    {
      "buffer": 0,
      "byteOffset": 1146852,
      "byteLength": 272
    },
    {
      "buffer": 0,
      "byteOffset": 1147124,
      "byteLength": 272
    },
    {
      "buffer": 0,
      "byteOffset": 1147396,
      "byteLength": 272
    },
    {
      "buffer": 0,
      "byteOffset": 1147668,
      "byteLength": 272
    },
    {
      "buffer": 0,
      "byteOffset": 1147940,
      "byteLength": 272
    },
    {
      "buffer": 0,
      "byteOffset": 1148212,
      "byteLength": 272
    },
    {
      "buffer": 0,
      "byteOffset": 1148484,
      "byteLength": 36
    },
    {
      "buffer": 0,
      "byteOffset": 1148520,
      "byteLength": 144
    },
    {
      "buffer": 0,
      "byteOffset": 1148664,
      "byteLength": 144
    },
    {
      "buffer": 0,
      "byteOffset": 1148808,
      "byteLength": 144
    },
    {
      "buffer": 0,
      "byteOffset": 1148952,
      "byteLength": 144
    },
    {
      "buffer": 0,
      "byteOffset": 1149096,
      "byteLength": 144
    },
    {
      "buffer": 0,
      "byteOffset": 1149240,
      "byteLength": 144
    },
    {
      "buffer": 0,
      "byteOffset": 1149384,
      "byteLength": 144
    }
  ],
  "buffers": [
    {
      "uri": "commuter.bin",
      "byteLength": 1149528
    }
  ],
  "animations": [
    {
      "name": "NH walk FK",
      "samplers": [
        {
          "input": 25,
          "output": 26,
          "interpolation": "LINEAR"
        },
        {
          "input": 25,
          "output": 27,
          "interpolation": "LINEAR"
        },
        {
          "input": 25,
          "output": 28,
          "interpolation": "LINEAR"
        },
        {
          "input": 25,
          "output": 29,
          "interpolation": "LINEAR"
        },
        {
          "input": 25,
          "output": 30,
          "interpolation": "LINEAR"
        },
        {
          "input": 25,
          "output": 31,
          "interpolation": "LINEAR"
        },
        {
          "input": 25,
          "output": 32,
          "interpolation": "LINEAR"
        }
      ],
      "channels": [
        {
          "sampler": 0,
          "target": {
            "node": 6,
            "path": "rotation"
          }
        },
        {
          "sampler": 1,
          "target": {
            "node": 7,
            "path": "rotation"
          }
        },
        {
          "sampler": 2,
          "target": {
            "node": 8,
            "path": "rotation"
          }
        },
        {
          "sampler": 3,
          "target": {
            "node": 9,
            "path": "rotation"
          }
        },
        {
          "sampler": 4,
          "target": {
            "node": 24,
            "path": "rotation"
          }
        },
        {
          "sampler": 5,
          "target": {
            "node": 25,
            "path": "rotation"
          }
        },
        {
          "sampler": 6,
          "target": {
            "node": 26,
            "path": "rotation"
          }
        }
      ]
    },
    {
      "name": "NH stair FK",
      "samplers": [
        {
          "input": 33,
          "output": 34,
          "interpolation": "LINEAR"
        },
        {
          "input": 33,
          "output": 35,
          "interpolation": "LINEAR"
        },
        {
          "input": 33,
          "output": 36,
          "interpolation": "LINEAR"
        },
        {
          "input": 33,
          "output": 37,
          "interpolation": "LINEAR"
        },
        {
          "input": 33,
          "output": 38,
          "interpolation": "LINEAR"
        },
        {
          "input": 33,
          "output": 39,
          "interpolation": "LINEAR"
        },
        {
          "input": 33,
          "output": 40,
          "interpolation": "LINEAR"
        }
      ],
      "channels": [
        {
          "sampler": 0,
          "target": {
            "node": 6,
            "path": "rotation"
          }
        },
        {
          "sampler": 1,
          "target": {
            "node": 7,
            "path": "rotation"
          }
        },
        {
          "sampler": 2,
          "target": {
            "node": 8,
            "path": "rotation"
          }
        },
        {
          "sampler": 3,
          "target": {
            "node": 9,
            "path": "rotation"
          }
        },
        {
          "sampler": 4,
          "target": {
            "node": 24,
            "path": "rotation"
          }
        },
        {
          "sampler": 5,
          "target": {
            "node": 25,
            "path": "rotation"
          }
        },
        {
          "sampler": 6,
          "target": {
            "node": 26,
            "path": "rotation"
          }
        }
      ]
    },
    {
      "name": "NH idle FK",
      "samplers": [
        {
          "input": 41,
          "output": 42,
          "interpolation": "LINEAR"
        },
        {
          "input": 41,
          "output": 43,
          "interpolation": "LINEAR"
        },
        {
          "input": 41,
          "output": 44,
          "interpolation": "LINEAR"
        },
        {
          "input": 41,
          "output": 45,
          "interpolation": "LINEAR"
        },
        {
          "input": 41,
          "output": 46,
          "interpolation": "LINEAR"
        },
        {
          "input": 41,
          "output": 47,
          "interpolation": "LINEAR"
        },
        {
          "input": 41,
          "output": 48,
          "interpolation": "LINEAR"
        }
      ],
      "channels": [
        {
          "sampler": 0,
          "target": {
            "node": 6,
            "path": "rotation"
          }
        },
        {
          "sampler": 1,
          "target": {
            "node": 7,
            "path": "rotation"
          }
        },
        {
          "sampler": 2,
          "target": {
            "node": 8,
            "path": "rotation"
          }
        },
        {
          "sampler": 3,
          "target": {
            "node": 9,
            "path": "rotation"
          }
        },
        {
          "sampler": 4,
          "target": {
            "node": 24,
            "path": "rotation"
          }
        },
        {
          "sampler": 5,
          "target": {
            "node": 25,
            "path": "rotation"
          }
        },
        {
          "sampler": 6,
          "target": {
            "node": 26,
            "path": "rotation"
          }
        }
      ]
    }
  ],
  "extras": {
    "heightMetres": 1.78,
    "nearDistanceMetres": 18,
    "maximumVisibleNearResidents": 12,
    "materialBudget": 4,
    "jointBudget": 72,
    "authoredMotion": "Original FK cycles; no mocap or ground IK",
    "sourceAssetLicense": "CC0-1.0",
    "codeLicense": "MIT",
    "restPose": "Relaxed standing, +Z forward, sole Y=0"
  }
}