{
  "asset": {
    "version": "2.0",
    "generator": "Neon Harbor independent CC0 core conversion",
    "copyright": "CC0 MakeHuman Team / Data Collection AB / Joel Palmius / Jonas Hauquier; NH conversion and FK under project MIT"
  },
  "scene": 0,
  "scenes": [
    {
      "nodes": [
        0
      ]
    }
  ],
  "nodes": [
    {
      "name": "Near shopkeeper \u00b7 licensed core anatomy",
      "children": [
        1,
        72,
        73,
        74,
        75
      ]
    },
    {
      "name": "root",
      "translation": [
        0.0,
        0.9261105092907359,
        -0.06841525957235846
      ],
      "extras": {
        "makehumanJoint": "root"
      },
      "children": [
        2,
        3,
        4
      ]
    },
    {
      "name": "pelvis_L",
      "translation": [
        0.0,
        -0.00371578832760866,
        0.09497342971105158
      ],
      "extras": {
        "makehumanJoint": "pelvis.L"
      },
      "children": [
        6
      ]
    },
    {
      "name": "pelvis_R",
      "translation": [
        0.0,
        -0.00371578832760866,
        0.09497342971105158
      ],
      "extras": {
        "makehumanJoint": "pelvis.R"
      },
      "children": [
        7
      ]
    },
    {
      "name": "spine05",
      "translation": [
        0.0,
        -0.00371578832760866,
        0.09497342971105158
      ],
      "extras": {
        "makehumanJoint": "spine05"
      },
      "children": [
        5
      ]
    },
    {
      "name": "spine04",
      "translation": [
        0.0,
        0.08223610775761625,
        -0.051879707078023585
      ],
      "extras": {
        "makehumanJoint": "spine04"
      },
      "children": [
        10
      ]
    },
    {
      "name": "upperleg01_L",
      "translation": [
        0.10371819304940175,
        -0.011271028302762498,
        -0.007175416921063771
      ],
      "extras": {
        "makehumanJoint": "upperleg01.L"
      },
      "children": [
        8
      ]
    },
    {
      "name": "upperleg01_R",
      "translation": [
        -0.10371819304940175,
        -0.011271028302762498,
        -0.007175416921063771
      ],
      "extras": {
        "makehumanJoint": "upperleg01.R"
      },
      "children": [
        9
      ]
    },
    {
      "name": "lowerleg01_L",
      "translation": [
        0.043267440153890835,
        -0.4052005339597349,
        0.0343519036594382
      ],
      "extras": {
        "makehumanJoint": "lowerleg01.L"
      },
      "children": [
        11
      ]
    },
    {
      "name": "lowerleg01_R",
      "translation": [
        -0.043267440153890835,
        -0.4052005339597349,
        0.0343519036594382
      ],
      "extras": {
        "makehumanJoint": "lowerleg01.R"
      },
      "children": [
        12
      ]
    },
    {
      "name": "spine03",
      "translation": [
        0.0,
        0.06922790424622538,
        0.02414967976469633
      ],
      "extras": {
        "makehumanJoint": "spine03"
      },
      "children": [
        13
      ]
    },
    {
      "name": "foot_L",
      "translation": [
        0.03128976430863545,
        -0.4187357787632351,
        -0.018679050039896797
      ],
      "extras": {
        "makehumanJoint": "foot.L"
      },
      "children": [
        15
      ]
    },
    {
      "name": "foot_R",
      "translation": [
        -0.03128976430863545,
        -0.4187357787632351,
        -0.018679050039896797
      ],
      "extras": {
        "makehumanJoint": "foot.R"
      },
      "children": [
        16
      ]
    },
    {
      "name": "spine02",
      "translation": [
        0.0,
        0.09987285267233581,
        0.013502856791135994
      ],
      "extras": {
        "makehumanJoint": "spine02"
      },
      "children": [
        14
      ]
    },
    {
      "name": "spine01",
      "translation": [
        0.0,
        0.1689064288443758,
        0.002861922547096418
      ],
      "extras": {
        "makehumanJoint": "spine01"
      },
      "children": [
        17,
        18,
        19
      ]
    },
    {
      "name": "toe1-1_L",
      "translation": [
        -0.024137902305654796,
        -0.046102863418143736,
        0.1366744678124164
      ],
      "extras": {
        "makehumanJoint": "toe1-1.L"
      }
    },
    {
      "name": "toe1-1_R",
      "translation": [
        0.024137902305654796,
        -0.046102863418143736,
        0.1366744678124164
      ],
      "extras": {
        "makehumanJoint": "toe1-1.R"
      }
    },
    {
      "name": "clavicle_L",
      "translation": [
        0.02482688365958541,
        0.08233032742994872,
        0.004357659845373155
      ],
      "extras": {
        "makehumanJoint": "clavicle.L"
      },
      "children": [
        21
      ]
    },
    {
      "name": "clavicle_R",
      "translation": [
        -0.02482688365958541,
        0.08233032742994872,
        0.004357659845373155
      ],
      "extras": {
        "makehumanJoint": "clavicle.R"
      },
      "children": [
        22
      ]
    },
    {
      "name": "neck01",
      "translation": [
        0.0,
        0.15728207677036687,
        -0.017100870528329225
      ],
      "extras": {
        "makehumanJoint": "neck01"
      },
      "children": [
        20
      ]
    },
    {
      "name": "neck02",
      "translation": [
        1.3620423124486967e-18,
        0.040199412073567364,
        0.024765051999617278
      ],
      "extras": {
        "makehumanJoint": "neck02"
      },
      "children": [
        23
      ]
    },
    {
      "name": "shoulder01_L",
      "translation": [
        0.07239309636364165,
        0.018840990101718136,
        0.002099332074156114
      ],
      "extras": {
        "makehumanJoint": "shoulder01.L"
      },
      "children": [
        24
      ]
    },
    {
      "name": "shoulder01_R",
      "translation": [
        -0.07239309636364165,
        0.018840990101718136,
        0.002099332074156114
      ],
      "extras": {
        "makehumanJoint": "shoulder01.R"
      },
      "children": [
        25
      ]
    },
    {
      "name": "neck03",
      "translation": [
        1.3620423124486967e-18,
        0.041274105211108525,
        0.01150755893851355
      ],
      "extras": {
        "makehumanJoint": "neck03"
      },
      "children": [
        26
      ]
    },
    {
      "name": "upperarm01_L",
      "translation": [
        0.07241959564648519,
        -0.03689583481241265,
        0.001704787196264223
      ],
      "extras": {
        "makehumanJoint": "upperarm01.L"
      },
      "children": [
        27
      ]
    },
    {
      "name": "upperarm01_R",
      "translation": [
        -0.07241959564648519,
        -0.03689583481241265,
        0.001704787196264223
      ],
      "extras": {
        "makehumanJoint": "upperarm01.R"
      },
      "children": [
        28
      ]
    },
    {
      "name": "head",
      "translation": [
        -2.7240846248973934e-18,
        0.036118522515670826,
        0.014717897982255798
      ],
      "extras": {
        "makehumanJoint": "head"
      },
      "children": [
        29,
        30,
        31
      ]
    },
    {
      "name": "lowerarm01_L",
      "translation": [
        0.04030533015846027,
        -0.2547503560015505,
        0.0038755125152365663
      ],
      "extras": {
        "makehumanJoint": "lowerarm01.L"
      },
      "children": [
        32
      ]
    },
    {
      "name": "lowerarm01_R",
      "translation": [
        -0.04030533015846027,
        -0.2547503560015505,
        0.0038755125152365663
      ],
      "extras": {
        "makehumanJoint": "lowerarm01.R"
      },
      "children": [
        33
      ]
    },
    {
      "name": "eye_L",
      "translation": [
        0.03249106513087345,
        0.037740867498643915,
        0.08061376277464288
      ],
      "extras": {
        "makehumanJoint": "eye.L"
      }
    },
    {
      "name": "eye_R",
      "translation": [
        -0.03249106513087345,
        0.037740867498643915,
        0.08061376277464288
      ],
      "extras": {
        "makehumanJoint": "eye.R"
      }
    },
    {
      "name": "jaw",
      "translation": [
        0.0,
        0.0021847186522072626,
        0.011271028302762442
      ],
      "extras": {
        "makehumanJoint": "jaw"
      }
    },
    {
      "name": "wrist_L",
      "translation": [
        0.03632594365564121,
        -0.22959859259270643,
        0.01280722372474527
      ],
      "extras": {
        "makehumanJoint": "wrist.L"
      },
      "children": [
        34,
        36,
        38,
        40,
        42
      ]
    },
    {
      "name": "wrist_R",
      "translation": [
        -0.03632594365564121,
        -0.22959859259270643,
        0.01280722372474527
      ],
      "extras": {
        "makehumanJoint": "wrist.R"
      },
      "children": [
        35,
        37,
        39,
        41,
        43
      ]
    },
    {
      "name": "finger1-1_L",
      "translation": [
        -0.0007486725114588533,
        -0.032269330391634155,
        0.030121877670556227
      ],
      "extras": {
        "makehumanJoint": "finger1-1.L"
      },
      "children": [
        44
      ]
    },
    {
      "name": "finger1-1_R",
      "translation": [
        0.0007486725114588533,
        -0.032269330391634155,
        0.030121877670556227
      ],
      "extras": {
        "makehumanJoint": "finger1-1.R"
      },
      "children": [
        45
      ]
    },
    {
      "name": "metacarpal1_L",
      "translation": [
        0.001374190975064915,
        -0.030680467767294606,
        0.008409349725869805
      ],
      "extras": {
        "makehumanJoint": "metacarpal1.L"
      },
      "children": [
        46
      ]
    },
    {
      "name": "metacarpal1_R",
      "translation": [
        -0.001374190975064915,
        -0.030680467767294606,
        0.008409349725869805
      ],
      "extras": {
        "makehumanJoint": "metacarpal1.R"
      },
      "children": [
        47
      ]
    },
    {
      "name": "metacarpal2_L",
      "translation": [
        0.001374190975064915,
        -0.030680467767294606,
        0.008409349725869805
      ],
      "extras": {
        "makehumanJoint": "metacarpal2.L"
      },
      "children": [
        48
      ]
    },
    {
      "name": "metacarpal2_R",
      "translation": [
        -0.001374190975064915,
        -0.030680467767294606,
        0.008409349725869805
      ],
      "extras": {
        "makehumanJoint": "metacarpal2.R"
      },
      "children": [
        49
      ]
    },
    {
      "name": "metacarpal3_L",
      "translation": [
        0.0017461000734807774,
        -0.03925551949410855,
        -0.011732069094028848
      ],
      "extras": {
        "makehumanJoint": "metacarpal3.L"
      },
      "children": [
        50
      ]
    },
    {
      "name": "metacarpal3_R",
      "translation": [
        -0.0017461000734807774,
        -0.03925551949410855,
        -0.011732069094028848
      ],
      "extras": {
        "makehumanJoint": "metacarpal3.R"
      },
      "children": [
        51
      ]
    },
    {
      "name": "metacarpal4_L",
      "translation": [
        0.0017461000734807774,
        -0.03925551949410855,
        -0.011732069094028848
      ],
      "extras": {
        "makehumanJoint": "metacarpal4.L"
      },
      "children": [
        52
      ]
    },
    {
      "name": "metacarpal4_R",
      "translation": [
        -0.0017461000734807774,
        -0.03925551949410855,
        -0.011732069094028848
      ],
      "extras": {
        "makehumanJoint": "metacarpal4.R"
      },
      "children": [
        53
      ]
    },
    {
      "name": "finger1-2_L",
      "translation": [
        -0.020993406285043398,
        -0.01019206808253692,
        0.020464576449516256
      ],
      "extras": {
        "makehumanJoint": "finger1-2.L"
      },
      "children": [
        54
      ]
    },
    {
      "name": "finger1-2_R",
      "translation": [
        0.020993406285043398,
        -0.01019206808253692,
        0.020464576449516256
      ],
      "extras": {
        "makehumanJoint": "finger1-2.R"
      },
      "children": [
        55
      ]
    },
    {
      "name": "finger2-1_L",
      "translation": [
        0.0038039853564743042,
        -0.06628152823891265,
        0.03498650058358109
      ],
      "extras": {
        "makehumanJoint": "finger2-1.L"
      },
      "children": [
        56
      ]
    },
    {
      "name": "finger2-1_R",
      "translation": [
        -0.0038039853564743042,
        -0.06628152823891265,
        0.03498650058358109
      ],
      "extras": {
        "makehumanJoint": "finger2-1.R"
      },
      "children": [
        57
      ]
    },
    {
      "name": "finger3-1_L",
      "translation": [
        0.009959107747093632,
        -0.06923056593568899,
        0.009174115641200423
      ],
      "extras": {
        "makehumanJoint": "finger3-1.L"
      },
      "children": [
        58
      ]
    },
    {
      "name": "finger3-1_R",
      "translation": [
        -0.009959107747093632,
        -0.06923056593568899,
        0.009174115641200423
      ],
      "extras": {
        "makehumanJoint": "finger3-1.R"
      },
      "children": [
        59
      ]
    },
    {
      "name": "finger4-1_L",
      "translation": [
        0.010446014180013202,
        -0.05837274258867253,
        0.009447499096995857
      ],
      "extras": {
        "makehumanJoint": "finger4-1.L"
      },
      "children": [
        60
      ]
    },
    {
      "name": "finger4-1_R",
      "translation": [
        -0.010446014180013202,
        -0.05837274258867253,
        0.009447499096995857
      ],
      "extras": {
        "makehumanJoint": "finger4-1.R"
      },
      "children": [
        61
      ]
    },
    {
      "name": "finger5-1_L",
      "translation": [
        0.004905727102198526,
        -0.052534239416128226,
        -0.010240054680009124
      ],
      "extras": {
        "makehumanJoint": "finger5-1.L"
      },
      "children": [
        62
      ]
    },
    {
      "name": "finger5-1_R",
      "translation": [
        -0.004905727102198526,
        -0.052534239416128226,
        -0.010240054680009124
      ],
      "extras": {
        "makehumanJoint": "finger5-1.R"
      },
      "children": [
        63
      ]
    },
    {
      "name": "finger1-3_L",
      "translation": [
        -0.016290597089356595,
        -0.023327642150578032,
        0.022255014043508756
      ],
      "extras": {
        "makehumanJoint": "finger1-3.L"
      }
    },
    {
      "name": "finger1-3_R",
      "translation": [
        0.016290597089356595,
        -0.023327642150578032,
        0.022255014043508756
      ],
      "extras": {
        "makehumanJoint": "finger1-3.R"
      }
    },
    {
      "name": "finger2-2_L",
      "translation": [
        -0.004545497876228655,
        -0.024258184092431745,
        0.00766344756570618
      ],
      "extras": {
        "makehumanJoint": "finger2-2.L"
      },
      "children": [
        64
      ]
    },
    {
      "name": "finger2-2_R",
      "translation": [
        0.004545497876228655,
        -0.024258184092431745,
        0.00766344756570618
      ],
      "extras": {
        "makehumanJoint": "finger2-2.R"
      },
      "children": [
        65
      ]
    },
    {
      "name": "finger3-2_L",
      "translation": [
        -0.007807615426656561,
        -0.033179164723879606,
        0.0007742316725927387
      ],
      "extras": {
        "makehumanJoint": "finger3-2.L"
      },
      "children": [
        66
      ]
    },
    {
      "name": "finger3-2_R",
      "translation": [
        0.007807615426656561,
        -0.033179164723879606,
        0.0007742316725927387
      ],
      "extras": {
        "makehumanJoint": "finger3-2.R"
      },
      "children": [
        67
      ]
    },
    {
      "name": "finger4-2_L",
      "translation": [
        -0.006135455540194457,
        -0.02861887148085207,
        -0.004475227282345333
      ],
      "extras": {
        "makehumanJoint": "finger4-2.L"
      },
      "children": [
        68
      ]
    },
    {
      "name": "finger4-2_R",
      "translation": [
        0.006135455540194457,
        -0.02861887148085207,
        -0.004475227282345333
      ],
      "extras": {
        "makehumanJoint": "finger4-2.R"
      },
      "children": [
        69
      ]
    },
    {
      "name": "finger5-2_L",
      "translation": [
        -0.005215405212430052,
        -0.020073473130446606,
        -0.005688048476015239
      ],
      "extras": {
        "makehumanJoint": "finger5-2.L"
      },
      "children": [
        70
      ]
    },
    {
      "name": "finger5-2_R",
      "translation": [
        0.005215405212430052,
        -0.020073473130446606,
        -0.005688048476015239
      ],
      "extras": {
        "makehumanJoint": "finger5-2.R"
      },
      "children": [
        71
      ]
    },
    {
      "name": "finger2-3_L",
      "translation": [
        -0.008827207010701416,
        -0.02066714450557805,
        0.005176554602231806
      ],
      "extras": {
        "makehumanJoint": "finger2-3.L"
      }
    },
    {
      "name": "finger2-3_R",
      "translation": [
        0.008827207010701416,
        -0.02066714450557805,
        0.005176554602231806
      ],
      "extras": {
        "makehumanJoint": "finger2-3.R"
      }
    },
    {
      "name": "finger3-3_L",
      "translation": [
        -0.009117562865223333,
        -0.026206968702723876,
        0.002112233119129628
      ],
      "extras": {
        "makehumanJoint": "finger3-3.L"
      }
    },
    {
      "name": "finger3-3_R",
      "translation": [
        0.009117562865223333,
        -0.026206968702723876,
        0.002112233119129628
      ],
      "extras": {
        "makehumanJoint": "finger3-3.R"
      }
    },
    {
      "name": "finger4-3_L",
      "translation": [
        -0.007976810482501595,
        -0.023592536410184772,
        -0.00186442081454289
      ],
      "extras": {
        "makehumanJoint": "finger4-3.L"
      }
    },
    {
      "name": "finger4-3_R",
      "translation": [
        0.007976810482501595,
        -0.023592536410184772,
        -0.00186442081454289
      ],
      "extras": {
        "makehumanJoint": "finger4-3.R"
      }
    },
    {
      "name": "finger5-3_L",
      "translation": [
        -0.006628644269867312,
        -0.013779310869568073,
        -0.003229922923574746
      ],
      "extras": {
        "makehumanJoint": "finger5-3.L"
      }
    },
    {
      "name": "finger5-3_R",
      "translation": [
        0.006628644269867312,
        -0.013779310869568073,
        -0.003229922923574746
      ],
      "extras": {
        "makehumanJoint": "finger5-3.R"
      }
    },
    {
      "name": "skin",
      "mesh": 0,
      "skin": 0
    },
    {
      "name": "wardrobe",
      "mesh": 1,
      "skin": 0
    },
    {
      "name": "hair",
      "mesh": 2,
      "skin": 0
    },
    {
      "name": "eyes",
      "mesh": 3,
      "skin": 0
    }
  ],
  "meshes": [
    {
      "name": "skin",
      "primitives": [
        {
          "attributes": {
            "POSITION": 0,
            "NORMAL": 1,
            "TEXCOORD_0": 2,
            "JOINTS_0": 3,
            "WEIGHTS_0": 4
          },
          "indices": 5,
          "material": 0
        }
      ]
    },
    {
      "name": "wardrobe",
      "primitives": [
        {
          "attributes": {
            "POSITION": 6,
            "NORMAL": 7,
            "TEXCOORD_0": 8,
            "JOINTS_0": 9,
            "WEIGHTS_0": 10
          },
          "indices": 11,
          "material": 1
        }
      ]
    },
    {
      "name": "hair",
      "primitives": [
        {
          "attributes": {
            "POSITION": 12,
            "NORMAL": 13,
            "TEXCOORD_0": 14,
            "JOINTS_0": 15,
            "WEIGHTS_0": 16
          },
          "indices": 17,
          "material": 2
        }
      ]
    },
    {
      "name": "eyes",
      "primitives": [
        {
          "attributes": {
            "POSITION": 18,
            "NORMAL": 19,
            "TEXCOORD_0": 20,
            "JOINTS_0": 21,
            "WEIGHTS_0": 22
          },
          "indices": 23,
          "material": 3
        }
      ]
    }
  ],
  "skins": [
    {
      "name": "Reduced MakeHuman core FK 71",
      "joints": [
        1,
        2,
        3,
        4,
        5,
        6,
        7,
        8,
        9,
        10,
        11,
        12,
        13,
        14,
        15,
        16,
        17,
        18,
        19,
        20,
        21,
        22,
        23,
        24,
        25,
        26,
        27,
        28,
        29,
        30,
        31,
        32,
        33,
        34,
        35,
        36,
        37,
        38,
        39,
        40,
        41,
        42,
        43,
        44,
        45,
        46,
        47,
        48,
        49,
        50,
        51,
        52,
        53,
        54,
        55,
        56,
        57,
        58,
        59,
        60,
        61,
        62,
        63,
        64,
        65,
        66,
        67,
        68,
        69,
        70,
        71
      ],
      "skeleton": 1,
      "inverseBindMatrices": 24
    }
  ],
  "materials": [
    {
      "name": "CC0 anatomical skin",
      "pbrMetallicRoughness": {
        "baseColorTexture": {
          "index": 0
        },
        "metallicFactor": 0,
        "roughnessFactor": 0.64
      },
      "extras": {
        "surfaceKind": "skin",
        "source": "MakeHuman core young_asian_female"
      }
    },
    {
      "name": "CC0 woven workwear and leather shoes",
      "pbrMetallicRoughness": {
        "baseColorTexture": {
          "index": 1
        },
        "metallicFactor": 0,
        "roughnessFactor": 1,
        "metallicRoughnessTexture": {
          "index": 3
        }
      },
      "normalTexture": {
        "index": 2,
        "scale": 0.7
      },
      "occlusionTexture": {
        "index": 3,
        "strength": 0.35
      },
      "extras": {
        "surfaceKind": "cloth",
        "source": "MakeHuman core female_elegantsuit01/shoes02"
      }
    },
    {
      "name": "CC0 cropped hair cards",
      "alphaMode": "MASK",
      "alphaCutoff": 0.45,
      "doubleSided": true,
      "pbrMetallicRoughness": {
        "baseColorTexture": {
          "index": 4
        },
        "baseColorFactor": [
          0.07,
          0.035,
          0.018,
          1
        ],
        "metallicFactor": 0,
        "roughnessFactor": 0.82
      },
      "extras": {
        "surfaceKind": "hair"
      }
    },
    {
      "name": "CC0 brown eyes",
      "alphaMode": "MASK",
      "alphaCutoff": 0.35,
      "pbrMetallicRoughness": {
        "baseColorTexture": {
          "index": 5
        },
        "metallicFactor": 0,
        "roughnessFactor": 0.18
      },
      "extras": {
        "surfaceKind": "eye"
      }
    }
  ],
  "images": [
    {
      "uri": "skin-basecolor.jpg"
    },
    {
      "uri": "wardrobe-basecolor.jpg"
    },
    {
      "uri": "wardrobe-normal.png"
    },
    {
      "uri": "wardrobe-orm.png"
    },
    {
      "uri": "hair-basecolor.png"
    },
    {
      "uri": "eyes-basecolor.png"
    }
  ],
  "textures": [
    {
      "source": 0,
      "sampler": 0
    },
    {
      "source": 1,
      "sampler": 0
    },
    {
      "source": 2,
      "sampler": 0
    },
    {
      "source": 3,
      "sampler": 0
    },
    {
      "source": 4,
      "sampler": 0
    },
    {
      "source": 5,
      "sampler": 0
    }
  ],
  "samplers": [
    {
      "magFilter": 9729,
      "minFilter": 9987,
      "wrapS": 33071,
      "wrapT": 33071
    }
  ],
  "accessors": [
    {
      "bufferView": 0,
      "componentType": 5126,
      "count": 9073,
      "type": "VEC3",
      "min": [
        -0.26592886447906494,
        0.23442034423351288,
        -0.04604986310005188
      ],
      "max": [
        0.26592886447906494,
        1.771072506904602,
        0.16840589046478271
      ]
    },
    {
      "bufferView": 1,
      "componentType": 5126,
      "count": 9073,
      "type": "VEC3"
    },
    {
      "bufferView": 2,
      "componentType": 5126,
      "count": 9073,
      "type": "VEC2"
    },
    {
      "bufferView": 3,
      "componentType": 5123,
      "count": 9073,
      "type": "VEC4"
    },
    {
      "bufferView": 4,
      "componentType": 5126,
      "count": 9073,
      "type": "VEC4"
    },
    {
      "bufferView": 5,
      "componentType": 5123,
      "count": 49704,
      "type": "SCALAR"
    },
    {
      "bufferView": 6,
      "componentType": 5126,
      "count": 4190,
      "type": "VEC3",
      "min": [
        -0.270516037940979,
        0.0,
        -0.10562605410814285
      ],
      "max": [
        0.2701415419578552,
        1.5249698162078857,
        0.2317623496055603
      ]
    },
    {
      "bufferView": 7,
      "componentType": 5126,
      "count": 4190,
      "type": "VEC3"
    },
    {
      "bufferView": 8,
      "componentType": 5126,
      "count": 4190,
      "type": "VEC2"
    },
    {
      "bufferView": 9,
      "componentType": 5123,
      "count": 4190,
      "type": "VEC4"
    },
    {
      "bufferView": 10,
      "componentType": 5126,
      "count": 4190,
      "type": "VEC4"
    },
    {
      "bufferView": 11,
      "componentType": 5123,
      "count": 21768,
      "type": "SCALAR"
    },
    {
      "bufferView": 12,
      "componentType": 5126,
      "count": 1759,
      "type": "VEC3",
      "min": [
        -0.10418189316987991,
        1.5277822017669678,
        -0.06344695389270782
      ],
      "max": [
        0.10552261769771576,
        1.7799999713897705,
        0.16835139691829681
      ]
    },
    {
      "bufferView": 13,
      "componentType": 5126,
      "count": 1759,
      "type": "VEC3"
    },
    {
      "bufferView": 14,
      "componentType": 5126,
      "count": 1759,
      "type": "VEC2"
    },
    {
      "bufferView": 15,
      "componentType": 5123,
      "count": 1759,
      "type": "VEC4"
    },
    {
      "bufferView": 16,
      "componentType": 5126,
      "count": 1759,
      "type": "VEC4"
    },
    {
      "bufferView": 17,
      "componentType": 5123,
      "count": 6744,
      "type": "SCALAR"
    },
    {
      "bufferView": 18,
      "componentType": 5126,
      "count": 1076,
      "type": "VEC3",
      "min": [
        -0.04971158504486084,
        1.6397113800048828,
        0.12330891191959381
      ],
      "max": [
        0.04971158504486084,
        1.6707133054733276,
        0.1464405208826065
      ]
    },
    {
      "bufferView": 19,
      "componentType": 5126,
      "count": 1076,
      "type": "VEC3"
    },
    {
      "bufferView": 20,
      "componentType": 5126,
      "count": 1076,
      "type": "VEC2"
    },
    {
      "bufferView": 21,
      "componentType": 5123,
      "count": 1076,
      "type": "VEC4"
    },
    {
      "bufferView": 22,
      "componentType": 5126,
      "count": 1076,
      "type": "VEC4"
    },
    {
      "bufferView": 23,
      "componentType": 5123,
      "count": 6120,
      "type": "SCALAR"
    },
    {
      "bufferView": 24,
      "componentType": 5126,
      "count": 71,
      "type": "MAT4"
    },
    {
      "bufferView": 25,
      "componentType": 5126,
      "count": 17,
      "type": "SCALAR",
      "min": 0.0,
      "max": 1.0499999523162842
    },
    {
      "bufferView": 26,
      "componentType": 5126,
      "count": 17,
      "type": "VEC4"
    },
    {
      "bufferView": 27,
      "componentType": 5126,
      "count": 17,
      "type": "VEC4"
    },
    {
      "bufferView": 28,
      "componentType": 5126,
      "count": 17,
      "type": "VEC4"
    },
    {
      "bufferView": 29,
      "componentType": 5126,
      "count": 17,
      "type": "VEC4"
    },
    {
      "bufferView": 30,
      "componentType": 5126,
      "count": 17,
      "type": "VEC4"
    },
    {
      "bufferView": 31,
      "componentType": 5126,
      "count": 17,
      "type": "VEC4"
    },
    {
      "bufferView": 32,
      "componentType": 5126,
      "count": 17,
      "type": "VEC4"
    },
    {
      "bufferView": 33,
      "componentType": 5126,
      "count": 17,
      "type": "SCALAR",
      "min": 0.0,
      "max": 1.350000023841858
    },
    {
      "bufferView": 34,
      "componentType": 5126,
      "count": 17,
      "type": "VEC4"
    },
    {
      "bufferView": 35,
      "componentType": 5126,
      "count": 17,
      "type": "VEC4"
    },
    {
      "bufferView": 36,
      "componentType": 5126,
      "count": 17,
      "type": "VEC4"
    },
    {
      "bufferView": 37,
      "componentType": 5126,
      "count": 17,
      "type": "VEC4"
    },
    {
      "bufferView": 38,
      "componentType": 5126,
      "count": 17,
      "type": "VEC4"
    },
    {
      "bufferView": 39,
      "componentType": 5126,
      "count": 17,
      "type": "VEC4"
    },
    {
      "bufferView": 40,
      "componentType": 5126,
      "count": 17,
      "type": "VEC4"
    },
    {
      "bufferView": 41,
      "componentType": 5126,
      "count": 9,
      "type": "SCALAR",
      "min": 0.0,
      "max": 3.200000047683716
    },
    {
      "bufferView": 42,
      "componentType": 5126,
      "count": 9,
      "type": "VEC4"
    },
    {
      "bufferView": 43,
      "componentType": 5126,
      "count": 9,
      "type": "VEC4"
    },
    {
      "bufferView": 44,
      "componentType": 5126,
      "count": 9,
      "type": "VEC4"
    },
    {
      "bufferView": 45,
      "componentType": 5126,
      "count": 9,
      "type": "VEC4"
    },
    {
      "bufferView": 46,
      "componentType": 5126,
      "count": 9,
      "type": "VEC4"
    },
    {
      "bufferView": 47,
      "componentType": 5126,
      "count": 9,
      "type": "VEC4"
    },
    {
      "bufferView": 48,
      "componentType": 5126,
      "count": 9,
      "type": "VEC4"
    }
  ],
  "bufferViews": [
    {
      "buffer": 0,
      "byteOffset": 0,
      "byteLength": 108876,
      "target": 34962
    },
    {
      "buffer": 0,
      "byteOffset": 108876,
      "byteLength": 108876,
      "target": 34962
    },
    {
      "buffer": 0,
      "byteOffset": 217752,
      "byteLength": 72584,
      "target": 34962
    },
    {
      "buffer": 0,
      "byteOffset": 290336,
      "byteLength": 72584,
      "target": 34962
    },
    {
      "buffer": 0,
      "byteOffset": 362920,
      "byteLength": 145168,
      "target": 34962
    },
    {
      "buffer": 0,
      "byteOffset": 508088,
      "byteLength": 99408,
      "target": 34963
    },
    {
      "buffer": 0,
      "byteOffset": 607496,
      "byteLength": 50280,
      "target": 34962
    },
    {
      "buffer": 0,
      "byteOffset": 657776,
      "byteLength": 50280,
      "target": 34962
    },
    {
      "buffer": 0,
      "byteOffset": 708056,
      "byteLength": 33520,
      "target": 34962
    },
    {
      "buffer": 0,
      "byteOffset": 741576,
      "byteLength": 33520,
      "target": 34962
    },
    {
      "buffer": 0,
      "byteOffset": 775096,
      "byteLength": 67040,
      "target": 34962
    },
    {
      "buffer": 0,
      "byteOffset": 842136,
      "byteLength": 43536,
      "target": 34963
    },
    {
      "buffer": 0,
      "byteOffset": 885672,
      "byteLength": 21108,
      "target": 34962
    },
    {
      "buffer": 0,
      "byteOffset": 906780,
      "byteLength": 21108,
      "target": 34962
    },
    {
      "buffer": 0,
      "byteOffset": 927888,
      "byteLength": 14072,
      "target": 34962
    },
    {
      "buffer": 0,
      "byteOffset": 941960,
      "byteLength": 14072,
      "target": 34962
    },
    {
      "buffer": 0,
      "byteOffset": 956032,
      "byteLength": 28144,
      "target": 34962
    },
    {
      "buffer": 0,
      "byteOffset": 984176,
      "byteLength": 13488,
      "target": 34963
    },
    {
      "buffer": 0,
      "byteOffset": 997664,
      "byteLength": 12912,
      "target": 34962
    },
    {
      "buffer": 0,
      "byteOffset": 1010576,
      "byteLength": 12912,
      "target": 34962
    },
    {
      "buffer": 0,
      "byteOffset": 1023488,
      "byteLength": 8608,
      "target": 34962
    },
    {
      "buffer": 0,
      "byteOffset": 1032096,
      "byteLength": 8608,
      "target": 34962
    },
    {
      "buffer": 0,
      "byteOffset": 1040704,
      "byteLength": 17216,
      "target": 34962
    },
    {
      "buffer": 0,
      "byteOffset": 1057920,
      "byteLength": 12240,
      "target": 34963
    },
    {
      "buffer": 0,
      "byteOffset": 1070160,
      "byteLength": 4544
    },
    {
      "buffer": 0,
      "byteOffset": 1074704,
      "byteLength": 68
    },
    {
      "buffer": 0,
      "byteOffset": 1074772,
      "byteLength": 272
    },
    {
      "buffer": 0,
      "byteOffset": 1075044,
      "byteLength": 272
    },
    {
      "buffer": 0,
      "byteOffset": 1075316,
      "byteLength": 272
    },
    {
      "buffer": 0,
      "byteOffset": 1075588,
      "byteLength": 272
    },
    {
      "buffer": 0,
      "byteOffset": 1075860,
      "byteLength": 272
    },
    {
      "buffer": 0,
      "byteOffset": 1076132,
      "byteLength": 272
    },
    {
      "buffer": 0,
      "byteOffset": 1076404,
      "byteLength": 272
    },
    {
      "buffer": 0,
      "byteOffset": 1076676,
      "byteLength": 68
    },
    {
      "buffer": 0,
      "byteOffset": 1076744,
      "byteLength": 272
    },
    {
      "buffer": 0,
      "byteOffset": 1077016,
      "byteLength": 272
    },
    {
      "buffer": 0,
      "byteOffset": 1077288,
      "byteLength": 272
    },
    {
      "buffer": 0,
      "byteOffset": 1077560,
      "byteLength": 272
    },
    {
      "buffer": 0,
      "byteOffset": 1077832,
      "byteLength": 272
    },
    {
      "buffer": 0,
      "byteOffset": 1078104,
      "byteLength": 272
    },
    {
      "buffer": 0,
      "byteOffset": 1078376,
      "byteLength": 272
    },
    {
      "buffer": 0,
      "byteOffset": 1078648,
      "byteLength": 36
    },
    {
      "buffer": 0,
      "byteOffset": 1078684,
      "byteLength": 144
    },
    {
      "buffer": 0,
      "byteOffset": 1078828,
      "byteLength": 144
    },
    {
      "buffer": 0,
      "byteOffset": 1078972,
      "byteLength": 144
    },
    {
      "buffer": 0,
      "byteOffset": 1079116,
      "byteLength": 144
    },
    {
      "buffer": 0,
      "byteOffset": 1079260,
      "byteLength": 144
    },
    {
      "buffer": 0,
      "byteOffset": 1079404,
      "byteLength": 144
    },
    {
      "buffer": 0,
      "byteOffset": 1079548,
      "byteLength": 144
    }
  ],
  "buffers": [
    {
      "uri": "shopkeeper.bin",
      "byteLength": 1079692
    }
  ],
  "animations": [
    {
      "name": "NH walk FK",
      "samplers": [
        {
          "input": 25,
          "output": 26,
          "interpolation": "LINEAR"
        },
        {
          "input": 25,
          "output": 27,
          "interpolation": "LINEAR"
        },
        {
          "input": 25,
          "output": 28,
          "interpolation": "LINEAR"
        },
        {
          "input": 25,
          "output": 29,
          "interpolation": "LINEAR"
        },
        {
          "input": 25,
          "output": 30,
          "interpolation": "LINEAR"
        },
        {
          "input": 25,
          "output": 31,
          "interpolation": "LINEAR"
        },
        {
          "input": 25,
          "output": 32,
          "interpolation": "LINEAR"
        }
      ],
      "channels": [
        {
          "sampler": 0,
          "target": {
            "node": 6,
            "path": "rotation"
          }
        },
        {
          "sampler": 1,
          "target": {
            "node": 7,
            "path": "rotation"
          }
        },
        {
          "sampler": 2,
          "target": {
            "node": 8,
            "path": "rotation"
          }
        },
        {
          "sampler": 3,
          "target": {
            "node": 9,
            "path": "rotation"
          }
        },
        {
          "sampler": 4,
          "target": {
            "node": 24,
            "path": "rotation"
          }
        },
        {
          "sampler": 5,
          "target": {
            "node": 25,
            "path": "rotation"
          }
        },
        {
          "sampler": 6,
          "target": {
            "node": 26,
            "path": "rotation"
          }
        }
      ]
    },
    {
      "name": "NH stair FK",
      "samplers": [
        {
          "input": 33,
          "output": 34,
          "interpolation": "LINEAR"
        },
        {
          "input": 33,
          "output": 35,
          "interpolation": "LINEAR"
        },
        {
          "input": 33,
          "output": 36,
          "interpolation": "LINEAR"
        },
        {
          "input": 33,
          "output": 37,
          "interpolation": "LINEAR"
        },
        {
          "input": 33,
          "output": 38,
          "interpolation": "LINEAR"
        },
        {
          "input": 33,
          "output": 39,
          "interpolation": "LINEAR"
        },
        {
          "input": 33,
          "output": 40,
          "interpolation": "LINEAR"
        }
      ],
      "channels": [
        {
          "sampler": 0,
          "target": {
            "node": 6,
            "path": "rotation"
          }
        },
        {
          "sampler": 1,
          "target": {
            "node": 7,
            "path": "rotation"
          }
        },
        {
          "sampler": 2,
          "target": {
            "node": 8,
            "path": "rotation"
          }
        },
        {
          "sampler": 3,
          "target": {
            "node": 9,
            "path": "rotation"
          }
        },
        {
          "sampler": 4,
          "target": {
            "node": 24,
            "path": "rotation"
          }
        },
        {
          "sampler": 5,
          "target": {
            "node": 25,
            "path": "rotation"
          }
        },
        {
          "sampler": 6,
          "target": {
            "node": 26,
            "path": "rotation"
          }
        }
      ]
    },
    {
      "name": "NH idle FK",
      "samplers": [
        {
          "input": 41,
          "output": 42,
          "interpolation": "LINEAR"
        },
        {
          "input": 41,
          "output": 43,
          "interpolation": "LINEAR"
        },
        {
          "input": 41,
          "output": 44,
          "interpolation": "LINEAR"
        },
        {
          "input": 41,
          "output": 45,
          "interpolation": "LINEAR"
        },
        {
          "input": 41,
          "output": 46,
          "interpolation": "LINEAR"
        },
        {
          "input": 41,
          "output": 47,
          "interpolation": "LINEAR"
        },
        {
          "input": 41,
          "output": 48,
          "interpolation": "LINEAR"
        }
      ],
      "channels": [
        {
          "sampler": 0,
          "target": {
            "node": 6,
            "path": "rotation"
          }
        },
        {
          "sampler": 1,
          "target": {
            "node": 7,
            "path": "rotation"
          }
        },
        {
          "sampler": 2,
          "target": {
            "node": 8,
            "path": "rotation"
          }
        },
        {
          "sampler": 3,
          "target": {
            "node": 9,
            "path": "rotation"
          }
        },
        {
          "sampler": 4,
          "target": {
            "node": 24,
            "path": "rotation"
          }
        },
        {
          "sampler": 5,
          "target": {
            "node": 25,
            "path": "rotation"
          }
        },
        {
          "sampler": 6,
          "target": {
            "node": 26,
            "path": "rotation"
          }
        }
      ]
    }
  ],
  "extras": {
    "heightMetres": 1.78,
    "nearDistanceMetres": 18,
    "maximumVisibleNearResidents": 12,
    "materialBudget": 4,
    "jointBudget": 72,
    "authoredMotion": "Original FK cycles; no mocap or ground IK",
    "sourceAssetLicense": "CC0-1.0",
    "codeLicense": "MIT",
    "restPose": "Relaxed standing, +Z forward, sole Y=0"
  }
}